<svg xmlns="http://www.w3.org/2000/svg" width="3600" height="900" viewBox="0 0 3600 900" role="img">
<defs>
      <linearGradient id="floor" x1="0" x2="1">
        <stop offset="0%" stop-color="#c49b57"/>
        <stop offset="50%" stop-color="#e8c981"/>
        <stop offset="100%" stop-color="#9b723a"/>
      </linearGradient>
    </defs>

        <rect x="0" y="0" width="600" height="900" fill="hsl(185, 36%, 20%)"/>
        <rect x="70" y="135" width="460" height="305" rx="34" fill="#f8fafc" opacity="0.24"/>
        <rect x="140" y="500" width="320" height="105" rx="28" fill="#2e6f7f" opacity="0.82"/>
        <text x="145" y="675" fill="#f8fafc" font-family="Arial, sans-serif" font-size="46" font-weight="700">Entrance</text>

        <rect x="600" y="0" width="600" height="900" fill="hsl(203, 36%, 25%)"/>
        <rect x="670" y="135" width="460" height="305" rx="34" fill="#f8fafc" opacity="0.38"/>
        <rect x="740" y="500" width="320" height="105" rx="28" fill="#2e6f7f" opacity="0.82"/>
        <text x="745" y="675" fill="#f8fafc" font-family="Arial, sans-serif" font-size="46" font-weight="700">Kitchen</text>

        <rect x="1200" y="0" width="600" height="900" fill="hsl(221, 36%, 20%)"/>
        <rect x="1270" y="135" width="460" height="305" rx="34" fill="#f8fafc" opacity="0.24"/>
        <rect x="1340" y="500" width="320" height="105" rx="28" fill="#2e6f7f" opacity="0.82"/>
        <text x="1345" y="675" fill="#f8fafc" font-family="Arial, sans-serif" font-size="46" font-weight="700">Dining</text>

        <rect x="1800" y="0" width="600" height="900" fill="hsl(239, 36%, 25%)"/>
        <rect x="1870" y="135" width="460" height="305" rx="34" fill="#f8fafc" opacity="0.38"/>
        <rect x="1940" y="500" width="320" height="105" rx="28" fill="#2e6f7f" opacity="0.82"/>
        <text x="1945" y="675" fill="#f8fafc" font-family="Arial, sans-serif" font-size="46" font-weight="700">Lounge</text>

        <rect x="2400" y="0" width="600" height="900" fill="hsl(257, 36%, 20%)"/>
        <rect x="2470" y="135" width="460" height="305" rx="34" fill="#f8fafc" opacity="0.24"/>
        <rect x="2540" y="500" width="320" height="105" rx="28" fill="#2e6f7f" opacity="0.82"/>
        <text x="2545" y="675" fill="#f8fafc" font-family="Arial, sans-serif" font-size="46" font-weight="700">Balcony</text>

        <rect x="3000" y="0" width="600" height="900" fill="hsl(275, 36%, 25%)"/>
        <rect x="3070" y="135" width="460" height="305" rx="34" fill="#f8fafc" opacity="0.38"/>
        <rect x="3140" y="500" width="320" height="105" rx="28" fill="#2e6f7f" opacity="0.82"/>
        <text x="3145" y="675" fill="#f8fafc" font-family="Arial, sans-serif" font-size="46" font-weight="700">City View</text>

    <rect x="0" y="690" width="3600" height="210" fill="url(#floor)"/>
    <path d="M0 690 C600 628 980 746 1440 690 C1960 626 2350 744 2880 690 C3200 656 3440 672 3600 690 L3600 742 L0 742 Z" fill="#f6e4b0" opacity="0.28"/>
    <rect x="0" y="0" width="3600" height="88" fill="#020617" opacity="0.42"/>
    <text x="64" y="62" fill="#f8fafc" font-family="Arial, sans-serif" font-size="42" font-weight="700">Living Room Panorama</text>
    <text x="2190" y="62" fill="#cbd5e1" font-family="Arial, sans-serif" font-size="34" font-weight="700">Drag or use the slider to inspect this full sample panorama</text>
</svg>
